<svg xmlns="http://www.w3.org/2000/svg" xmlns:xlink="http://www.w3.org/1999/xlink" width="1024" zoomAndPan="magnify" viewBox="0 0 768 767.999994" height="1024" preserveAspectRatio="xMidYMid meet" version="1.0"><path fill="#ffffff" d="M 676.066406 225.398438 L 675.808594 224.984375 C 724.007812 145.25 734.207031 92.339844 706.121094 64.121094 C 678.035156 35.90625 624.808594 46.234375 544.820312 94.640625 C 540.921875 92.496094 536.984375 90.429688 533 88.441406 C 529.019531 86.453125 525.003906 84.542969 520.945312 82.71875 C 516.886719 80.890625 512.796875 79.148438 508.667969 77.488281 C 504.539062 75.824219 500.378906 74.25 496.1875 72.753906 C 491.996094 71.261719 487.777344 69.851562 483.53125 68.527344 C 479.28125 67.203125 475.007812 65.964844 470.710938 64.816406 C 466.414062 63.664062 462.09375 62.597656 457.753906 61.621094 C 453.414062 60.644531 449.054688 59.753906 444.679688 58.953125 C 440.300781 58.148438 435.910156 57.4375 431.503906 56.8125 C 427.101562 56.183594 422.683594 55.648438 418.257812 55.203125 C 413.832031 54.753906 409.394531 54.398438 404.957031 54.128906 C 400.515625 53.859375 396.070312 53.679688 391.621094 53.589844 C 387.171875 53.5 382.722656 53.5 378.273438 53.589844 C 373.828125 53.679688 369.382812 53.859375 364.941406 54.128906 C 360.5 54.394531 356.066406 54.753906 351.636719 55.203125 C 347.210938 55.648438 342.792969 56.183594 338.390625 56.808594 C 333.984375 57.433594 329.59375 58.148438 325.214844 58.949219 C 320.839844 59.753906 316.480469 60.644531 312.140625 61.621094 C 307.800781 62.597656 303.480469 63.664062 299.183594 64.816406 C 294.886719 65.964844 290.613281 67.203125 286.363281 68.527344 C 282.117188 69.851562 277.898438 71.261719 273.707031 72.753906 C 269.515625 74.246094 265.355469 75.824219 261.226562 77.488281 C 257.101562 79.148438 253.007812 80.890625 248.949219 82.71875 C 244.894531 84.542969 240.875 86.449219 236.894531 88.4375 C 232.914062 90.425781 228.972656 92.496094 225.078125 94.640625 C 221.179688 96.789062 217.328125 99.011719 213.519531 101.3125 C 209.710938 103.617188 205.953125 105.992188 202.238281 108.445312 C 198.527344 110.898438 194.867188 113.425781 191.257812 116.027344 C 187.644531 118.628906 184.089844 121.300781 180.585938 124.046875 C 177.085938 126.789062 173.640625 129.605469 170.25 132.488281 C 166.859375 135.371094 163.53125 138.320312 160.261719 141.335938 C 156.992188 144.355469 153.78125 147.433594 150.636719 150.582031 C 147.492188 153.726562 144.410156 156.9375 141.390625 160.207031 C 138.375 163.476562 135.425781 166.808594 132.542969 170.195312 C 129.660156 173.585938 126.847656 177.03125 124.101562 180.535156 C 121.359375 184.035156 118.6875 187.59375 116.085938 191.203125 C 113.484375 194.8125 110.957031 198.476562 108.503906 202.1875 C 106.050781 205.898438 103.675781 209.660156 101.371094 213.464844 C 99.070312 217.273438 96.847656 221.128906 94.699219 225.023438 C 92.554688 228.921875 90.488281 232.859375 88.5 236.839844 C 86.511719 240.824219 84.605469 244.839844 82.777344 248.898438 C 80.953125 252.957031 79.207031 257.050781 77.546875 261.175781 C 75.886719 265.304688 74.308594 269.464844 72.816406 273.65625 C 71.324219 277.847656 69.914062 282.066406 68.589844 286.3125 C 67.265625 290.5625 66.03125 294.835938 64.878906 299.132812 C 63.726562 303.429688 62.664062 307.75 61.683594 312.089844 C 60.707031 316.433594 59.816406 320.789062 59.015625 325.167969 C 58.214844 329.542969 57.5 333.933594 56.875 338.339844 C 56.25 342.746094 55.714844 347.160156 55.269531 351.589844 C 54.820312 356.015625 54.464844 360.449219 54.195312 364.890625 C 53.925781 369.332031 53.746094 373.777344 53.660156 378.226562 C 53.570312 382.675781 53.570312 387.121094 53.660156 391.570312 C 53.75 396.019531 53.929688 400.464844 54.199219 404.90625 C 54.464844 409.347656 54.824219 413.78125 55.273438 418.207031 C 55.71875 422.632812 56.257812 427.050781 56.882812 431.457031 C 57.507812 435.859375 58.222656 440.253906 59.023438 444.628906 C 59.824219 449.003906 60.714844 453.363281 61.695312 457.703125 C 62.671875 462.042969 63.738281 466.363281 64.886719 470.660156 C 66.039062 474.960938 67.277344 479.230469 68.601562 483.480469 C 69.925781 487.726562 71.335938 491.949219 72.828125 496.140625 C 74.324219 500.328125 75.902344 504.488281 77.5625 508.617188 C 79.222656 512.746094 80.96875 516.835938 82.792969 520.894531 C 84.621094 524.953125 86.527344 528.96875 88.515625 532.949219 C 90.503906 536.929688 92.574219 540.871094 94.71875 544.765625 C 46.285156 624.785156 35.980469 677.851562 64.121094 706.121094 C 66.859375 708.765625 69.835938 711.105469 73.054688 713.140625 C 76.269531 715.179688 79.65625 716.871094 83.21875 718.214844 C 86.777344 719.5625 90.4375 720.535156 94.199219 721.136719 C 97.957031 721.738281 101.738281 721.953125 105.539062 721.78125 C 116.273438 720.558594 126.886719 718.664062 137.382812 716.097656 C 147.875 713.53125 158.167969 710.3125 168.253906 706.445312 C 178.339844 702.578125 188.144531 698.085938 197.664062 692.976562 C 207.179688 687.867188 216.339844 682.179688 225.140625 675.910156 L 225.421875 676.09375 L 225.941406 675.753906 C 229.835938 677.890625 233.773438 679.945312 237.753906 681.921875 C 241.730469 683.898438 245.746094 685.796875 249.800781 687.613281 C 253.855469 689.425781 257.945312 691.160156 262.070312 692.808594 C 266.191406 694.460938 270.347656 696.027344 274.535156 697.511719 C 278.722656 698.996094 282.9375 700.394531 287.183594 701.707031 C 291.425781 703.023438 295.691406 704.25 299.984375 705.394531 C 304.277344 706.535156 308.59375 707.589844 312.929688 708.558594 C 317.261719 709.527344 321.617188 710.410156 325.988281 711.203125 C 330.359375 712 334.742188 712.703125 339.140625 713.320312 C 343.542969 713.9375 347.949219 714.46875 352.371094 714.90625 C 356.792969 715.347656 361.21875 715.699219 365.652344 715.960938 C 370.089844 716.222656 374.527344 716.394531 378.96875 716.480469 C 383.410156 716.5625 387.851562 716.558594 392.292969 716.460938 C 396.734375 716.367188 401.171875 716.183594 405.605469 715.910156 C 410.039062 715.636719 414.464844 715.273438 418.882812 714.820312 C 423.304688 714.371094 427.710938 713.832031 432.109375 713.203125 C 436.507812 712.574219 440.890625 711.855469 445.257812 711.050781 C 449.628906 710.246094 453.976562 709.351562 458.308594 708.371094 C 462.644531 707.390625 466.953125 706.324219 471.246094 705.171875 C 475.535156 704.019531 479.800781 702.777344 484.039062 701.453125 C 488.28125 700.128906 492.492188 698.71875 496.675781 697.226562 C 500.859375 695.730469 505.007812 694.152344 509.128906 692.492188 C 513.25 690.828125 517.332031 689.085938 521.382812 687.261719 C 525.433594 685.433594 529.445312 683.527344 533.417969 681.542969 C 537.390625 679.554688 541.324219 677.488281 545.210938 675.34375 C 549.101562 673.199219 552.949219 670.976562 556.75 668.675781 C 560.550781 666.375 564.300781 664 568.007812 661.550781 C 571.710938 659.097656 575.367188 656.574219 578.96875 653.976562 C 582.574219 651.378906 586.121094 648.710938 589.621094 645.96875 C 593.117188 643.230469 596.554688 640.417969 599.9375 637.539062 C 603.320312 634.664062 606.644531 631.714844 609.910156 628.703125 C 613.175781 625.691406 616.378906 622.613281 619.519531 619.472656 C 622.660156 616.332031 625.734375 613.128906 628.75 609.863281 C 631.761719 606.597656 634.707031 603.273438 637.585938 599.890625 C 640.460938 596.507812 643.273438 593.066406 646.011719 589.570312 C 648.753906 586.074219 651.421875 582.523438 654.019531 578.921875 C 656.617188 575.316406 659.140625 571.660156 661.589844 567.957031 C 664.039062 564.25 666.414062 560.5 668.714844 556.695312 C 671.011719 552.894531 673.234375 549.050781 675.378906 545.160156 C 677.523438 541.269531 679.589844 537.339844 681.578125 533.367188 C 683.5625 529.390625 685.46875 525.378906 687.292969 521.332031 C 689.121094 517.28125 690.863281 513.195312 692.523438 509.074219 C 694.183594 504.957031 695.761719 500.804688 697.257812 496.621094 C 698.75 492.4375 700.160156 488.226562 701.484375 483.984375 C 702.808594 479.746094 704.046875 475.480469 705.199219 471.1875 C 706.351562 466.898438 707.417969 462.585938 708.398438 458.253906 C 709.378906 453.921875 710.269531 449.570312 711.074219 445.203125 C 711.878906 440.832031 712.597656 436.449219 713.226562 432.054688 C 713.851562 427.65625 714.394531 423.246094 714.84375 418.828125 C 715.296875 414.410156 715.65625 409.980469 715.929688 405.546875 C 716.203125 401.113281 716.386719 396.675781 716.480469 392.234375 C 716.574219 387.792969 716.582031 383.351562 716.496094 378.910156 C 716.414062 374.46875 716.238281 370.03125 715.976562 365.597656 C 715.714844 361.164062 715.363281 356.734375 714.921875 352.316406 C 714.480469 347.894531 713.953125 343.484375 713.335938 339.085938 C 712.714844 334.6875 712.011719 330.300781 711.214844 325.929688 C 710.421875 321.5625 709.539062 317.207031 708.570312 312.871094 C 707.601562 308.539062 706.542969 304.222656 705.402344 299.929688 C 704.257812 295.636719 703.03125 291.371094 701.714844 287.128906 C 700.402344 282.882812 699 278.667969 697.515625 274.480469 C 696.035156 270.292969 694.464844 266.140625 692.816406 262.015625 C 691.164062 257.890625 689.429688 253.800781 687.613281 249.746094 C 685.796875 245.695312 683.902344 241.675781 681.925781 237.699219 C 679.949219 233.722656 677.890625 229.785156 675.753906 225.890625 Z M 669.101562 100.363281 C 671.691406 104.972656 670.242188 128.347656 643.449219 177.609375 C 628.332031 158.832031 611.382812 141.886719 592.605469 126.769531 C 641.871094 99.976562 665.117188 98.5 669.101562 100.363281 Z M 385.121094 105.28125 C 390.730469 105.285156 396.332031 105.460938 401.929688 105.800781 C 407.53125 106.144531 413.113281 106.652344 418.679688 107.332031 C 424.25 108.007812 429.789062 108.851562 435.308594 109.859375 C 440.824219 110.871094 446.304688 112.046875 451.753906 113.386719 C 457.199219 114.722656 462.601562 116.226562 467.957031 117.890625 C 473.3125 119.554688 478.613281 121.375 483.859375 123.359375 C 489.109375 125.339844 494.289062 127.476562 499.410156 129.773438 C 504.527344 132.066406 509.570312 134.511719 514.542969 137.105469 C 519.515625 139.703125 524.402344 142.445312 529.210938 145.335938 C 534.015625 148.226562 538.734375 151.257812 543.359375 154.433594 C 547.980469 157.605469 552.507812 160.914062 556.933594 164.359375 C 561.359375 167.804688 565.675781 171.378906 569.886719 175.085938 C 574.101562 178.789062 578.195312 182.617188 582.175781 186.566406 C 586.15625 190.519531 590.015625 194.585938 593.753906 198.769531 C 597.492188 202.949219 601.097656 207.242188 604.578125 211.640625 C 608.058594 216.039062 611.402344 220.539062 614.609375 225.140625 C 562.023438 301.304688 502.722656 371.832031 436.714844 436.714844 C 371.835938 502.714844 301.316406 562.015625 225.164062 614.609375 C 222.136719 612.5 219.148438 610.332031 216.203125 608.101562 C 213.261719 605.875 210.363281 603.589844 207.511719 601.246094 C 204.65625 598.902344 201.851562 596.503906 199.09375 594.050781 C 196.335938 591.597656 193.625 589.089844 190.96875 586.527344 C 188.308594 583.964844 185.699219 581.351562 183.144531 578.6875 C 180.589844 576.023438 178.089844 573.308594 175.640625 570.546875 C 173.191406 567.78125 170.800781 564.972656 168.464844 562.113281 C 166.125 559.253906 163.847656 556.351562 161.625 553.402344 C 159.402344 550.453125 157.242188 547.460938 155.136719 544.429688 C 153.035156 541.394531 150.992188 538.320312 149.011719 535.203125 C 147.027344 532.089844 145.109375 528.9375 143.253906 525.746094 C 141.394531 522.554688 139.601562 519.328125 137.875 516.066406 C 136.144531 512.804688 134.480469 509.507812 132.882812 506.179688 C 131.285156 502.851562 129.75 499.496094 128.285156 496.105469 C 126.820312 492.71875 125.421875 489.300781 124.089844 485.855469 C 122.761719 482.414062 121.5 478.945312 120.304688 475.449219 C 119.113281 471.957031 117.988281 468.441406 116.9375 464.902344 C 115.882812 461.363281 114.898438 457.804688 113.984375 454.230469 C 113.074219 450.652344 112.230469 447.058594 111.460938 443.445312 C 110.6875 439.835938 109.992188 436.210938 109.363281 432.574219 C 108.734375 428.933594 108.179688 425.285156 107.699219 421.625 C 107.214844 417.964844 106.804688 414.296875 106.46875 410.621094 C 106.128906 406.945312 105.867188 403.261719 105.671875 399.574219 C 105.480469 395.886719 105.363281 392.199219 105.316406 388.507812 C 105.273438 384.816406 105.300781 381.125 105.398438 377.433594 C 105.5 373.742188 105.671875 370.054688 105.917969 366.371094 C 106.167969 362.6875 106.484375 359.011719 106.878906 355.339844 C 107.269531 351.667969 107.734375 348.007812 108.269531 344.355469 C 108.808594 340.703125 109.417969 337.0625 110.097656 333.433594 C 110.777344 329.804688 111.53125 326.191406 112.355469 322.589844 C 113.179688 318.992188 114.074219 315.410156 115.039062 311.847656 C 116.007812 308.285156 117.042969 304.742188 118.148438 301.21875 C 119.253906 297.699219 120.429688 294.199219 121.675781 290.722656 C 122.921875 287.246094 124.234375 283.796875 125.613281 280.375 C 126.996094 276.949219 128.445312 273.554688 129.960938 270.1875 C 131.476562 266.820312 133.058594 263.488281 134.707031 260.183594 C 136.351562 256.878906 138.066406 253.609375 139.84375 250.371094 C 141.621094 247.136719 143.460938 243.9375 145.363281 240.773438 C 147.269531 237.609375 149.234375 234.488281 151.261719 231.402344 C 153.289062 228.316406 155.378906 225.273438 157.523438 222.269531 C 159.671875 219.265625 161.878906 216.308594 164.144531 213.390625 C 166.410156 210.476562 168.734375 207.605469 171.113281 204.785156 C 173.488281 201.960938 175.925781 199.183594 178.414062 196.457031 C 180.902344 193.730469 183.441406 191.054688 186.039062 188.429688 C 188.632812 185.800781 191.277344 183.226562 193.976562 180.707031 C 196.671875 178.183594 199.417969 175.71875 202.210938 173.304688 C 205.003906 170.890625 207.847656 168.535156 210.734375 166.234375 C 213.621094 163.933594 216.554688 161.691406 219.53125 159.507812 C 222.507812 157.320312 225.523438 155.195312 228.585938 153.132812 C 231.644531 151.066406 234.746094 149.0625 237.886719 147.121094 C 241.023438 145.179688 244.203125 143.300781 247.417969 141.484375 C 250.628906 139.667969 253.878906 137.914062 257.164062 136.226562 C 260.445312 134.539062 263.761719 132.917969 267.109375 131.359375 C 270.457031 129.804688 273.835938 128.316406 277.242188 126.890625 C 280.648438 125.46875 284.082031 124.113281 287.542969 122.828125 C 291.003906 121.539062 294.488281 120.324219 297.996094 119.171875 C 301.503906 118.023438 305.035156 116.945312 308.585938 115.9375 C 312.136719 114.925781 315.707031 113.988281 319.296875 113.121094 C 322.882812 112.253906 326.488281 111.457031 330.109375 110.730469 C 333.730469 110.007812 337.363281 109.351562 341.007812 108.773438 C 344.652344 108.191406 348.308594 107.679688 351.976562 107.246094 C 355.640625 106.808594 359.316406 106.445312 362.996094 106.152344 C 366.675781 105.863281 370.359375 105.644531 374.050781 105.5 C 377.738281 105.351562 381.429688 105.28125 385.121094 105.28125 Z M 101.140625 669.878906 C 98.550781 665.269531 100 641.894531 126.792969 592.632812 C 141.90625 611.417969 158.851562 628.363281 177.636719 643.472656 C 128.371094 670.265625 105.101562 671.71875 101.140625 669.878906 Z M 385.121094 664.960938 C 366.324219 664.9375 347.722656 663.03125 329.308594 659.242188 C 310.898438 655.457031 293.054688 649.863281 275.773438 642.464844 C 346.296875 591.542969 412.144531 535.160156 473.320312 473.320312 C 535.164062 412.148438 591.546875 346.300781 642.464844 275.773438 C 644.726562 281.0625 646.824219 286.417969 648.753906 291.839844 C 650.6875 297.257812 652.449219 302.734375 654.042969 308.261719 C 655.636719 313.789062 657.058594 319.363281 658.304688 324.980469 C 659.554688 330.597656 660.628906 336.246094 661.527344 341.929688 C 662.429688 347.613281 663.152344 353.316406 663.699219 359.046875 C 664.246094 364.773438 664.617188 370.511719 664.808594 376.261719 C 665 382.011719 665.015625 387.765625 664.855469 393.515625 C 664.691406 399.265625 664.351562 405.007812 663.832031 410.738281 C 663.316406 416.46875 662.621094 422.175781 661.75 427.863281 C 660.882812 433.550781 659.835938 439.207031 658.617188 444.832031 C 657.398438 450.453125 656.003906 456.035156 654.441406 461.570312 C 652.875 467.109375 651.140625 472.589844 649.238281 478.019531 C 647.335938 483.449219 645.265625 488.816406 643.03125 494.117188 C 640.796875 499.421875 638.398438 504.648438 635.84375 509.800781 C 633.285156 514.957031 630.570312 520.027344 627.699219 525.011719 C 624.828125 530 621.804688 534.890625 618.632812 539.691406 C 615.457031 544.488281 612.140625 549.1875 608.675781 553.78125 C 605.210938 558.375 601.609375 562.859375 597.867188 567.230469 C 594.128906 571.601562 590.257812 575.855469 586.253906 579.988281 C 582.25 584.117188 578.121094 588.125 573.871094 592 C 569.621094 595.878906 565.253906 599.621094 560.769531 603.230469 C 556.289062 606.835938 551.699219 610.300781 547.003906 613.625 C 542.308594 616.949219 537.511719 620.125 532.621094 623.152344 C 527.726562 626.183594 522.746094 629.054688 517.675781 631.777344 C 512.605469 634.496094 507.457031 637.058594 502.226562 639.457031 C 497 641.859375 491.703125 644.097656 486.335938 646.171875 C 480.96875 648.246094 475.542969 650.15625 470.058594 651.894531 C 464.574219 653.632812 459.039062 655.199219 453.457031 656.597656 C 447.878906 657.996094 442.257812 659.21875 436.601562 660.269531 C 430.945312 661.320312 425.261719 662.195312 419.546875 662.894531 C 413.835938 663.589844 408.109375 664.113281 402.367188 664.457031 C 396.625 664.804688 390.875 664.972656 385.121094 664.960938 Z M 385.121094 664.960938 " fill-opacity="1" fill-rule="nonzero"/></svg>